<svg width="25" height="20" viewBox="0 0 25 20" fill="none" xmlns="http://www.w3.org/2000/svg">
<g clip-path="url(#clip0_103_5)">
<path d="M17.0455 -0.227173C17.0455 -0.227173 16.2598 -0.142855 15.9091 0.909191L14.7727 5.45464L19.3182 8.86374H22.7273C25 8.86374 25 6.59101 25 6.59101L21.5909 3.18192C20.4545 2.04555 19.3182 2.04555 18.1818 2.04555V0.909191C18.1818 0.909191 18.1818 -0.227173 17.0455 -0.227173ZM5.68182 2.04555C5.68182 2.04555 4.87864 2.02987 4.03932 2.44942C3.2 2.86896 2.27273 3.93942 2.27273 5.45464V7.64737C2.27182 7.67419 2.27182 7.70078 2.27273 7.72737V8.86374V10.0001C2.27273 12.2728 2.27273 13.4092 1.13636 13.4092C1.13636 13.4092 0 13.4092 0 14.5456V19.091C0 19.091 0 20.2274 1.13636 20.2274C2.27273 20.2274 2.27273 19.091 2.27273 19.091V15.6819C3.07659 15.6819 3.84227 15.3703 4.54545 15.0028V19.091C4.54545 19.091 4.54545 20.2274 5.68182 20.2274C6.81818 20.2274 6.81818 19.091 6.81818 19.091V13.4092H13.6364L15.1457 17.9369C15.9091 20.2271 17.0455 20.2274 17.0455 20.2274H18.1818C18.1818 20.2274 19.3182 20.2274 19.3182 19.091C19.3182 17.9546 18.1818 17.9546 18.1818 17.9546V12.2728C18.1818 10.2487 16.745 9.42033 15.9091 8.86374L12.4955 6.59101H4.54545V5.45464C4.54545 4.69714 4.75432 4.63101 5.05159 4.4826C5.34864 4.33396 5.68182 4.31828 5.68182 4.31828C7.21864 4.3401 7.21864 2.02374 5.68182 2.04555Z" fill="white" fill-opacity="0.8"/>
</g>
<defs>
<clipPath id="clip0_103_5">
<rect width="25" height="20" fill="white"/>
</clipPath>
</defs>
</svg>
