<svg width="76" height="93" viewBox="0 0 76 93" fill="none" xmlns="http://www.w3.org/2000/svg">
<path d="M32.1683 4.16675C37.687 4.16675 42.9995 6.35425 46.8954 10.2709C50.812 14.1897 53.0016 19.4792 53.0016 25.0209C53.0016 32.3126 49.1662 39.0834 42.9162 42.8543C36.6662 46.6251 28.8954 46.8334 22.4391 43.3959H22.3745C21.7516 43.1459 21.2495 42.7084 20.6662 42.4168C20.0225 42.1459 19.2912 42.1043 18.6266 42.3147C17.0829 42.8543 15.5204 43.2917 13.9162 43.6667C13.0829 43.6876 12.8329 43.1876 12.8329 42.3751C13.2079 40.7293 13.7079 39.1022 14.2933 37.5209C14.5204 36.8334 14.46 36.1043 14.1058 35.4563L13.6891 34.6459C12.1454 31.7084 11.335 28.4376 11.335 25.1272V25.0001C11.335 19.4792 13.5204 14.1667 17.437 10.2709C21.3537 6.35425 26.6454 4.16675 32.1683 4.16675ZM41.7704 22.3542C40.312 22.3542 39.1058 23.5418 39.1058 25.0209C39.1058 26.4793 40.312 27.6876 41.7704 27.6876C43.2495 27.6876 44.437 26.4793 44.437 25.0209C44.437 23.5418 43.2495 22.3542 41.7704 22.3542ZM32.1683 22.3542C30.6891 22.3542 29.4995 23.5418 29.4995 25.0209C29.4995 26.4793 30.6891 27.6876 32.1683 27.6876C33.6475 27.6876 34.8329 26.4793 34.8329 25.0209C34.8329 23.5418 33.6475 22.3542 32.1683 22.3542ZM22.562 22.3542C21.0829 22.3542 19.8954 23.5418 19.8954 25.0209C19.8954 26.4793 21.0829 27.6876 22.562 27.6876C24.0204 27.6876 25.2308 26.4793 25.2308 25.0209C25.2308 23.5418 24.0204 22.3542 22.562 22.3542Z" fill="white"/>
<g filter="url(#filter0_d_206_9)">
<path d="M15.22 72.2C14.18 72.2 13.32 72.0533 12.64 71.76C11.9733 71.4667 11.4533 71.0267 11.08 70.44C10.7067 69.84 10.4467 69.1 10.3 68.22C10.1533 67.3267 10.08 66.3 10.08 65.14C10.08 63.9533 10.1533 62.9133 10.3 62.02C10.4467 61.1267 10.7067 60.3867 11.08 59.8C11.4667 59.2 11.9933 58.7533 12.66 58.46C13.3267 58.1533 14.1867 58 15.24 58C15.7067 58 16.18 58.0267 16.66 58.08C17.14 58.12 17.5867 58.18 18 58.26C18.4267 58.3267 18.7933 58.3933 19.1 58.46L19.02 60.04C18.74 59.9867 18.3867 59.94 17.96 59.9C17.5467 59.8467 17.12 59.8 16.68 59.76C16.2533 59.72 15.86 59.7 15.5 59.7C14.78 59.7 14.1933 59.8067 13.74 60.02C13.2867 60.2333 12.9333 60.56 12.68 61C12.44 61.44 12.2733 62 12.18 62.68C12.1 63.36 12.06 64.18 12.06 65.14C12.06 66.0733 12.1 66.88 12.18 67.56C12.2733 68.24 12.44 68.8 12.68 69.24C12.92 69.6667 13.2667 69.9867 13.72 70.2C14.1867 70.4 14.7867 70.5 15.52 70.5C16.08 70.5 16.6867 70.4667 17.34 70.4C18.0067 70.3333 18.5733 70.26 19.04 70.18L19.1 71.78C18.78 71.8467 18.4 71.9133 17.96 71.98C17.5333 72.0467 17.08 72.1 16.6 72.14C16.1333 72.18 15.6733 72.2 15.22 72.2ZM21.4194 72V58.22H23.3394V64.26H29.8394V58.22H31.7594V72H29.8394V65.92H23.3394V72H21.4194ZM33.7164 72L37.4164 58.22H41.2364L44.9364 72H42.9964L42.0964 68.7H36.5364L35.6364 72H33.7164ZM36.9164 67.06H41.7364L39.8164 59.82H38.8364L36.9164 67.06ZM49.6481 72V59.92H45.5881V58.22H55.5881V59.92H51.5681V72H49.6481Z" fill="white"/>
</g>
<defs>
<filter id="filter0_d_206_9" x="0.0800781" y="48" width="75.5078" height="44.2" filterUnits="userSpaceOnUse" color-interpolation-filters="sRGB">
<feFlood flood-opacity="0" result="BackgroundImageFix"/>
<feColorMatrix in="SourceAlpha" type="matrix" values="0 0 0 0 0 0 0 0 0 0 0 0 0 0 0 0 0 0 127 0" result="hardAlpha"/>
<feOffset dx="5" dy="5"/>
<feGaussianBlur stdDeviation="7.5"/>
<feComposite in2="hardAlpha" operator="out"/>
<feColorMatrix type="matrix" values="0 0 0 0 0 0 0 0 0 0 0 0 0 0 0 0 0 0 0.25 0"/>
<feBlend mode="normal" in2="BackgroundImageFix" result="effect1_dropShadow_206_9"/>
<feBlend mode="normal" in="SourceGraphic" in2="effect1_dropShadow_206_9" result="shape"/>
</filter>
</defs>
</svg>
