<svg width="41" height="42" viewBox="0 0 41 42" fill="none" xmlns="http://www.w3.org/2000/svg">
<path d="M20.8513 6.25C25.1559 6.25 29.2996 7.95625 32.3384 11.0113C35.3934 14.0679 37.1013 18.1938 37.1013 22.5163C37.1013 28.2038 34.1096 33.485 29.2346 36.4263C24.3596 39.3675 18.2984 39.53 13.2625 36.8488H13.2121C12.7263 36.6538 12.3346 36.3125 11.8796 36.085C11.3775 35.8738 10.8071 35.8413 10.2888 36.0054C9.08463 36.4263 7.86588 36.7675 6.61463 37.06C5.96463 37.0763 5.76963 36.6863 5.76963 36.0525C6.06213 34.7688 6.45213 33.4996 6.90876 32.2663C7.08588 31.73 7.03876 31.1613 6.76251 30.6559L6.43751 30.0238C5.23338 27.7325 4.60126 25.1813 4.60126 22.5991V22.5C4.60126 18.1938 6.30588 14.05 9.36088 11.0113C12.4159 7.95625 16.5434 6.25 20.8513 6.25ZM28.3409 20.4363C27.2034 20.4363 26.2625 21.3625 26.2625 22.5163C26.2625 23.6538 27.2034 24.5963 28.3409 24.5963C29.4946 24.5963 30.4209 23.6538 30.4209 22.5163C30.4209 21.3625 29.4946 20.4363 28.3409 20.4363ZM20.8513 20.4363C19.6975 20.4363 18.7696 21.3625 18.7696 22.5163C18.7696 23.6538 19.6975 24.5963 20.8513 24.5963C22.005 24.5963 22.9296 23.6538 22.9296 22.5163C22.9296 21.3625 22.005 20.4363 20.8513 20.4363ZM13.3584 20.4363C12.2046 20.4363 11.2784 21.3625 11.2784 22.5163C11.2784 23.6538 12.2046 24.5963 13.3584 24.5963C14.4959 24.5963 15.44 23.6538 15.44 22.5163C15.44 21.3625 14.4959 20.4363 13.3584 20.4363Z" fill="#4E4E4E" fill-opacity="0.5"/>
<path d="M18.8513 3.25C23.1559 3.25 27.2996 4.95625 30.3384 8.01125C33.3934 11.0679 35.1013 15.1938 35.1013 19.5163C35.1013 25.2038 32.1096 30.485 27.2346 33.4263C22.3596 36.3675 16.2984 36.53 11.2625 33.8488H11.2121C10.7263 33.6538 10.3346 33.3125 9.87963 33.085C9.37751 32.8738 8.80713 32.8413 8.28876 33.0054C7.08463 33.4263 5.86588 33.7675 4.61463 34.06C3.96463 34.0763 3.76963 33.6863 3.76963 33.0525C4.06213 31.7688 4.45213 30.4996 4.90876 29.2663C5.08588 28.73 5.03876 28.1613 4.76251 27.6559L4.43751 27.0238C3.23338 24.7325 2.60126 22.1813 2.60126 19.5991V19.5C2.60126 15.1938 4.30588 11.05 7.36088 8.01125C10.4159 4.95625 14.5434 3.25 18.8513 3.25ZM26.3409 17.4363C25.2034 17.4363 24.2625 18.3625 24.2625 19.5163C24.2625 20.6538 25.2034 21.5963 26.3409 21.5963C27.4946 21.5963 28.4209 20.6538 28.4209 19.5163C28.4209 18.3625 27.4946 17.4363 26.3409 17.4363ZM18.8513 17.4363C17.6975 17.4363 16.7696 18.3625 16.7696 19.5163C16.7696 20.6538 17.6975 21.5963 18.8513 21.5963C20.005 21.5963 20.9296 20.6538 20.9296 19.5163C20.9296 18.3625 20.005 17.4363 18.8513 17.4363ZM11.3584 17.4363C10.2046 17.4363 9.27838 18.3625 9.27838 19.5163C9.27838 20.6538 10.2046 21.5963 11.3584 21.5963C12.4959 21.5963 13.44 20.6538 13.44 19.5163C13.44 18.3625 12.4959 17.4363 11.3584 17.4363Z" fill="white"/>
</svg>
