<svg width="100" height="93" viewBox="0 0 100 93" fill="none" xmlns="http://www.w3.org/2000/svg">
<path d="M59.7096 39.7798C60.5149 38.98 61.8057 38.98 62.611 39.7798L67.9332 44.0759H68.0256C69.1024 45.1643 69.1024 46.9288 68.0256 48.0172C66.9489 49.1055 65.2031 49.1055 64.1263 48.0172L59.7096 42.9552L59.542 42.7661C59.2298 42.3709 59.0574 41.8782 59.0574 41.3675C59.0574 40.7717 59.2921 40.2004 59.7096 39.7798ZM45.0366 7.16675C49.776 7.16675 54.3214 9.06974 57.6726 12.4571C61.0239 15.8444 62.9067 20.4387 62.9067 25.2291C62.9067 35.2047 54.906 43.2914 45.0366 43.2914C35.1672 43.2914 27.1665 35.2047 27.1665 25.2291C27.1665 15.2535 35.1672 7.16675 45.0366 7.16675Z" fill="#4E4E4E" fill-opacity="0.5"/>
<path d="M57.7096 36.7798C58.5149 35.98 59.8057 35.98 60.611 36.7798L65.9332 41.0759H66.0256C67.1024 42.1643 67.1024 43.9288 66.0256 45.0172C64.9489 46.1055 63.2031 46.1055 62.1263 45.0172L57.7096 39.9552L57.542 39.7661C57.2298 39.3709 57.0574 38.8782 57.0574 38.3675C57.0574 37.7717 57.2921 37.2004 57.7096 36.7798ZM43.0366 4.16675C47.776 4.16675 52.3214 6.06974 55.6726 9.45709C59.0239 12.8444 60.9067 17.4387 60.9067 22.2291C60.9067 32.2047 52.906 40.2914 43.0366 40.2914C33.1672 40.2914 25.1665 32.2047 25.1665 22.2291C25.1665 12.2535 33.1672 4.16675 43.0366 4.16675Z" fill="white"/>
<g filter="url(#filter0_d_206_7)">
<path d="M15.52 72.2C15.0933 72.2 14.6 72.1733 14.04 72.12C13.4933 72.0667 12.9533 72 12.42 71.92C11.8867 71.84 11.42 71.7733 11.02 71.72L11.18 70.16C11.5667 70.2 12.02 70.2533 12.54 70.32C13.0733 70.3733 13.5933 70.42 14.1 70.46C14.6067 70.5 15.04 70.52 15.4 70.52C16.32 70.52 17 70.32 17.44 69.92C17.8933 69.52 18.12 68.8933 18.12 68.04C18.12 67.5733 18.0267 67.2067 17.84 66.94C17.6667 66.66 17.3667 66.44 16.94 66.28C16.5133 66.1067 15.94 65.9533 15.22 65.82C14.2333 65.62 13.42 65.38 12.78 65.1C12.14 64.82 11.6667 64.4267 11.36 63.92C11.0533 63.4 10.9 62.7 10.9 61.82C10.9 60.8867 11.08 60.14 11.44 59.58C11.8133 59.02 12.34 58.6133 13.02 58.36C13.7133 58.1067 14.52 57.98 15.44 57.98C15.8533 57.98 16.32 58.0067 16.84 58.06C17.3733 58.1 17.8933 58.1533 18.4 58.22C18.92 58.2867 19.3667 58.3533 19.74 58.42L19.6 60C19.2133 59.9467 18.76 59.9 18.24 59.86C17.7333 59.8067 17.24 59.76 16.76 59.72C16.28 59.68 15.8933 59.66 15.6 59.66C14.68 59.66 13.9867 59.8267 13.52 60.16C13.0667 60.48 12.84 60.9867 12.84 61.68C12.84 62.2133 12.94 62.62 13.14 62.9C13.34 63.18 13.6733 63.4 14.14 63.56C14.6067 63.72 15.22 63.8933 15.98 64.08C16.7 64.24 17.3133 64.4133 17.82 64.6C18.34 64.7867 18.7667 65.02 19.1 65.3C19.4333 65.58 19.6733 65.9267 19.82 66.34C19.98 66.7533 20.06 67.2733 20.06 67.9C20.06 68.9267 19.8733 69.7533 19.5 70.38C19.14 71.0067 18.62 71.4667 17.94 71.76C17.26 72.0533 16.4533 72.2 15.52 72.2ZM22.478 72V58.22H31.118V59.88H24.398V64.2H29.918V65.82H24.398V70.34H31.118V72H22.478ZM32.3727 72L36.0727 58.22H39.8927L43.5927 72H41.6527L40.7527 68.7H35.1927L34.2927 72H32.3727ZM35.5727 67.06H40.3927L38.4727 59.82H37.4927L35.5727 67.06ZM45.5444 72V58.22H50.7444C51.7577 58.22 52.6044 58.3667 53.2844 58.66C53.9644 58.9533 54.471 59.4133 54.8044 60.04C55.151 60.6667 55.3244 61.4867 55.3244 62.5C55.3244 63.5 55.1244 64.3467 54.7244 65.04C54.3377 65.7333 53.731 66.22 52.9044 66.5L55.4244 72H53.3244L51.0644 66.92H47.4644V72H45.5444ZM47.4644 65.3H50.7644C51.4044 65.3 51.911 65.18 52.2844 64.94C52.671 64.7 52.9444 64.3733 53.1044 63.96C53.2644 63.5333 53.3444 63.0533 53.3444 62.52C53.3444 61.6267 53.131 60.96 52.7044 60.52C52.291 60.08 51.6377 59.86 50.7444 59.86H47.4644V65.3ZM62.5286 72.2C61.4886 72.2 60.6286 72.0533 59.9486 71.76C59.2819 71.4667 58.7619 71.0267 58.3886 70.44C58.0153 69.84 57.7553 69.1 57.6086 68.22C57.4619 67.3267 57.3886 66.3 57.3886 65.14C57.3886 63.9533 57.4619 62.9133 57.6086 62.02C57.7553 61.1267 58.0153 60.3867 58.3886 59.8C58.7753 59.2 59.3019 58.7533 59.9686 58.46C60.6353 58.1533 61.4953 58 62.5486 58C63.0153 58 63.4886 58.0267 63.9686 58.08C64.4486 58.12 64.8953 58.18 65.3086 58.26C65.7353 58.3267 66.1019 58.3933 66.4086 58.46L66.3286 60.04C66.0486 59.9867 65.6953 59.94 65.2686 59.9C64.8553 59.8467 64.4286 59.8 63.9886 59.76C63.5619 59.72 63.1686 59.7 62.8086 59.7C62.0886 59.7 61.5019 59.8067 61.0486 60.02C60.5953 60.2333 60.2419 60.56 59.9886 61C59.7486 61.44 59.5819 62 59.4886 62.68C59.4086 63.36 59.3686 64.18 59.3686 65.14C59.3686 66.0733 59.4086 66.88 59.4886 67.56C59.5819 68.24 59.7486 68.8 59.9886 69.24C60.2286 69.6667 60.5753 69.9867 61.0286 70.2C61.4953 70.4 62.0953 70.5 62.8286 70.5C63.3886 70.5 63.9953 70.4667 64.6486 70.4C65.3153 70.3333 65.8819 70.26 66.3486 70.18L66.4086 71.78C66.0886 71.8467 65.7086 71.9133 65.2686 71.98C64.8419 72.0467 64.3886 72.1 63.9086 72.14C63.4419 72.18 62.9819 72.2 62.5286 72.2ZM68.728 72V58.22H70.648V64.26H77.148V58.22H79.068V72H77.148V65.92H70.648V72H68.728Z" fill="white"/>
</g>
<defs>
<filter id="filter0_d_206_7" x="0.899902" y="47.98" width="98.168" height="44.22" filterUnits="userSpaceOnUse" color-interpolation-filters="sRGB">
<feFlood flood-opacity="0" result="BackgroundImageFix"/>
<feColorMatrix in="SourceAlpha" type="matrix" values="0 0 0 0 0 0 0 0 0 0 0 0 0 0 0 0 0 0 127 0" result="hardAlpha"/>
<feOffset dx="5" dy="5"/>
<feGaussianBlur stdDeviation="7.5"/>
<feComposite in2="hardAlpha" operator="out"/>
<feColorMatrix type="matrix" values="0 0 0 0 0 0 0 0 0 0 0 0 0 0 0 0 0 0 0.25 0"/>
<feBlend mode="normal" in2="BackgroundImageFix" result="effect1_dropShadow_206_7"/>
<feBlend mode="normal" in="SourceGraphic" in2="effect1_dropShadow_206_7" result="shape"/>
</filter>
</defs>
</svg>
