<svg width="41" height="42" viewBox="0 0 41 42" fill="none" xmlns="http://www.w3.org/2000/svg">
<path d="M30.6336 31.6882C31.2617 31.0644 32.2686 31.0644 32.8967 31.6882L37.048 35.0392H37.1201C37.96 35.8881 37.96 37.2644 37.1201 38.1133C36.2802 38.9622 34.9185 38.9622 34.0787 38.1133L30.6336 34.165L30.5029 34.0175C30.2594 33.7093 30.1249 33.325 30.1249 32.9266C30.1249 32.4619 30.308 32.0163 30.6336 31.6882ZM19.1887 6.25C22.8854 6.25 26.4308 7.73433 29.0448 10.3765C31.6588 13.0186 33.1273 16.6021 33.1273 20.3386C33.1273 28.1196 26.8868 34.4273 19.1887 34.4273C11.4906 34.4273 5.25 28.1196 5.25 20.3386C5.25 12.5577 11.4906 6.25 19.1887 6.25Z" fill="#4E4E4E" fill-opacity="0.5"/>
<path d="M28.6336 28.6882C29.2617 28.0644 30.2686 28.0644 30.8967 28.6882L35.048 32.0392H35.1201C35.96 32.8881 35.96 34.2644 35.1201 35.1133C34.2802 35.9622 32.9185 35.9622 32.0787 35.1133L28.6336 31.165L28.5029 31.0175C28.2594 30.7093 28.1249 30.325 28.1249 29.9266C28.1249 29.4619 28.308 29.0163 28.6336 28.6882ZM17.1887 3.25C20.8854 3.25 24.4308 4.73433 27.0448 7.37646C29.6588 10.0186 31.1273 13.6021 31.1273 17.3386C31.1273 25.1196 24.8868 31.4273 17.1887 31.4273C9.49055 31.4273 3.25 25.1196 3.25 17.3386C3.25 9.55769 9.49055 3.25 17.1887 3.25Z" fill="white"/>
</svg>
