<svg width="110" height="110" viewBox="0 0 110 110" fill="none" xmlns="http://www.w3.org/2000/svg">
<g filter="url(#filter0_d_68_179)">
<circle cx="50" cy="50" r="40" fill="black" fill-opacity="0.4"/>
</g>
<path d="M58.1001 51.5099C55.9122 49.438 53.0134 48.2832 50.0001 48.2832C46.9868 48.2832 44.088 49.438 41.9001 51.5099L32.1301 60.7499C26.5301 65.8399 30.5701 75.5699 38.1301 75.1899C42.2301 75.0799 45.5601 72.9799 49.9901 73.0599C54.5801 72.9799 57.9901 74.8299 62.1101 75.1899C69.5401 75.3599 73.3801 65.7399 67.8601 60.7499L58.1001 51.5099Z" fill="#0B9619"/>
<path d="M74.9203 37.93C71.1003 37.18 68.1803 41.43 67.4203 45.09C65.1403 56.42 76.1203 58.58 78.6903 47.59C79.7403 42.88 78.0803 38.63 74.9203 37.93Z" fill="#0B9619"/>
<path d="M58.7301 44.05C62.5301 44.05 65.6201 39.73 65.6201 34.43C65.2401 21.67 52.2201 21.67 51.8501 34.43C51.8501 39.73 54.9401 44.05 58.7301 44.05Z" fill="#0B9619"/>
<path d="M32.5801 45.09C31.8301 41.43 28.9001 37.18 25.0802 37.93C18.0002 39.72 21.0002 54.81 27.9202 54.85C31.8401 54.72 33.6501 50.17 32.5801 45.09Z" fill="#0B9619"/>
<path d="M41.2699 44.05C45.0599 44.05 48.1499 39.73 48.1499 34.43C47.7799 21.67 34.7599 21.67 34.3799 34.43C34.3799 39.73 37.4699 44.05 41.2699 44.05Z" fill="#0B9619"/>
<defs>
<filter id="filter0_d_68_179" x="0" y="0" width="110" height="110" filterUnits="userSpaceOnUse" color-interpolation-filters="sRGB">
<feFlood flood-opacity="0" result="BackgroundImageFix"/>
<feColorMatrix in="SourceAlpha" type="matrix" values="0 0 0 0 0 0 0 0 0 0 0 0 0 0 0 0 0 0 127 0" result="hardAlpha"/>
<feOffset dx="5" dy="5"/>
<feGaussianBlur stdDeviation="7.5"/>
<feComposite in2="hardAlpha" operator="out"/>
<feColorMatrix type="matrix" values="0 0 0 0 0 0 0 0 0 0 0 0 0 0 0 0 0 0 0.25 0"/>
<feBlend mode="normal" in2="BackgroundImageFix" result="effect1_dropShadow_68_179"/>
<feBlend mode="normal" in="SourceGraphic" in2="effect1_dropShadow_68_179" result="shape"/>
</filter>
</defs>
</svg>
