<svg width="85" height="85" viewBox="0 0 85 85" fill="none" xmlns="http://www.w3.org/2000/svg">
<g filter="url(#filter0_d_68_114)">
<g clip-path="url(#clip0_68_114)">
<path fill-rule="evenodd" clip-rule="evenodd" d="M10 65H65V10H10V65Z" fill="black" fill-opacity="0.3"/>
<path fill-rule="evenodd" clip-rule="evenodd" d="M37.5 19.1666C42.479 19.1666 43.1033 19.1877 45.0588 19.277C47.0101 19.366 48.3429 19.6759 49.509 20.1291C50.7146 20.5976 51.737 21.2245 52.7562 22.2437C53.7755 23.2629 54.4023 24.2853 54.8709 25.4909C55.324 26.6571 55.634 27.9898 55.723 29.9411C55.8122 31.8966 55.8333 32.5209 55.8333 37.5C55.8333 42.479 55.8122 43.1033 55.723 45.0588C55.634 47.0101 55.324 48.3429 54.8709 49.509C54.4023 50.7146 53.7755 51.737 52.7562 52.7562C51.737 53.7755 50.7146 54.4023 49.509 54.8709C48.3429 55.324 47.0101 55.634 45.0588 55.723C43.1033 55.8122 42.479 55.8333 37.5 55.8333C32.5209 55.8333 31.8966 55.8122 29.9411 55.723C27.9898 55.634 26.6571 55.324 25.4909 54.8709C24.2853 54.4023 23.2629 53.7755 22.2437 52.7562C21.2245 51.737 20.5976 50.7146 20.1291 49.509C19.6759 48.3429 19.366 47.0101 19.277 45.0588C19.1877 43.1033 19.1666 42.479 19.1666 37.5C19.1666 32.5209 19.1877 31.8966 19.277 29.9411C19.366 27.9898 19.6759 26.6571 20.1291 25.4909C20.5976 24.2853 21.2245 23.2629 22.2437 22.2437C23.2629 21.2245 24.2853 20.5976 25.4909 20.1291C26.6571 19.6759 27.9898 19.366 29.9411 19.277C31.8966 19.1877 32.5209 19.1666 37.5 19.1666ZM37.5 22.4699C32.6048 22.4699 32.0249 22.4886 30.0917 22.5768C28.3042 22.6583 27.3335 22.957 26.6875 23.2081C25.8317 23.5407 25.221 23.9379 24.5795 24.5795C23.9379 25.221 23.5407 25.8317 23.2081 26.6875C22.957 27.3335 22.6583 28.3042 22.5768 30.0917C22.4886 32.0249 22.4699 32.6048 22.4699 37.5C22.4699 42.3952 22.4886 42.975 22.5768 44.9082C22.6583 46.6957 22.957 47.6664 23.2081 48.3124C23.5407 49.1682 23.938 49.7789 24.5795 50.4204C25.221 51.062 25.8317 51.4593 26.6875 51.7918C27.3335 52.0429 28.3042 52.3416 30.0917 52.4231C32.0247 52.5113 32.6044 52.53 37.5 52.53C42.3955 52.53 42.9753 52.5113 44.9082 52.4231C46.6957 52.3416 47.6664 52.0429 48.3124 51.7918C49.1682 51.4593 49.7789 51.062 50.4204 50.4204C51.062 49.7789 51.4593 49.1682 51.7918 48.3124C52.0429 47.6664 52.3416 46.6957 52.4231 44.9082C52.5113 42.975 52.53 42.3952 52.53 37.5C52.53 32.6048 52.5113 32.0249 52.4231 30.0917C52.3416 28.3042 52.0429 27.3335 51.7918 26.6875C51.4593 25.8317 51.062 25.221 50.4204 24.5795C49.7789 23.9379 49.1682 23.5407 48.3124 23.2081C47.6664 22.957 46.6957 22.6583 44.9082 22.5768C42.975 22.4886 42.3952 22.4699 37.5 22.4699ZM37.5 28.0856C42.6994 28.0856 46.9144 32.3005 46.9144 37.5C46.9144 42.6994 42.6994 46.9144 37.5 46.9144C32.3005 46.9144 28.0856 42.6994 28.0856 37.5C28.0856 32.3005 32.3005 28.0856 37.5 28.0856ZM37.5 43.6111C40.875 43.6111 43.6111 40.875 43.6111 37.5C43.6111 34.1249 40.875 31.3888 37.5 31.3888C34.1249 31.3888 31.3888 34.1249 31.3888 37.5C31.3888 40.875 34.1249 43.6111 37.5 43.6111ZM49.4864 27.7136C49.4864 28.9286 48.5014 29.9136 47.2863 29.9136C46.0714 29.9136 45.0863 28.9286 45.0863 27.7136C45.0863 26.4986 46.0714 25.5136 47.2863 25.5136C48.5014 25.5136 49.4864 26.4986 49.4864 27.7136Z" fill="white"/>
</g>
</g>
<defs>
<filter id="filter0_d_68_114" x="0" y="0" width="85" height="85" filterUnits="userSpaceOnUse" color-interpolation-filters="sRGB">
<feFlood flood-opacity="0" result="BackgroundImageFix"/>
<feColorMatrix in="SourceAlpha" type="matrix" values="0 0 0 0 0 0 0 0 0 0 0 0 0 0 0 0 0 0 127 0" result="hardAlpha"/>
<feOffset dx="5" dy="5"/>
<feGaussianBlur stdDeviation="7.5"/>
<feComposite in2="hardAlpha" operator="out"/>
<feColorMatrix type="matrix" values="0 0 0 0 0 0 0 0 0 0 0 0 0 0 0 0 0 0 0.25 0"/>
<feBlend mode="normal" in2="BackgroundImageFix" result="effect1_dropShadow_68_114"/>
<feBlend mode="normal" in="SourceGraphic" in2="effect1_dropShadow_68_114" result="shape"/>
</filter>
<clipPath id="clip0_68_114">
<rect x="10" y="10" width="55" height="55" rx="15" fill="white"/>
</clipPath>
</defs>
</svg>
