<svg width="20" height="20" viewBox="0 0 20 20" fill="none" xmlns="http://www.w3.org/2000/svg">
<path d="M18.3584 15.3562C18.3111 15.0801 18.1994 14.819 18.0324 14.5942C17.8654 14.3693 17.6478 14.1869 17.3972 14.0617C15.7258 13.2283 12.0581 11.9973 12.0581 11.9973V10.7863L12.1602 10.7093C12.8722 10.1645 13.3483 9.36759 13.4906 8.48244L13.5112 8.35338H13.6107C13.8796 8.35326 14.1423 8.27307 14.3654 8.12303C14.5885 7.97299 14.7619 7.7599 14.8634 7.51093C14.9844 7.29238 15.0478 7.04669 15.0477 6.79691C15.0477 6.62494 15.0151 6.45454 14.9514 6.29478C14.9195 6.12006 14.8224 5.96399 14.6798 5.85815L14.3414 5.65268L14.4255 5.28539C15.0368 2.62064 12.9724 0.220432 10.2004 0.154298C10.133 0.153003 10.0662 0.152378 10.0001 0.153651C9.93397 0.152378 9.86719 0.153003 9.79977 0.154293C7.02779 0.220432 4.96341 2.62064 5.5747 5.28539L5.65881 5.65267L5.32042 5.85815C5.17779 5.96399 5.08071 6.12006 5.04881 6.29478C4.98516 6.45454 4.95248 6.62494 4.9525 6.79691C4.95243 7.04669 5.01585 7.29238 5.13678 7.51093C5.23831 7.7599 5.41169 7.97298 5.6348 8.12302C5.85792 8.27306 6.12066 8.35326 6.38953 8.35338H6.48906L6.50961 8.48244C6.65189 9.36759 7.12803 10.1645 7.84006 10.7093L7.94215 10.7863V11.9973C7.94215 11.9973 4.27444 13.2283 2.60303 14.0617C2.35241 14.1868 2.13479 14.3692 1.96779 14.5941C1.80079 14.819 1.68911 15.0801 1.64179 15.3562C1.35541 17.0276 1.30469 19.8471 1.30469 19.8471H18.6955C18.6955 19.8471 18.6448 17.0276 18.3584 15.3562Z" fill="white" fill-opacity="0.8"/>
</svg>
