<svg width="16" height="16" viewBox="0 0 16 16" fill="none" xmlns="http://www.w3.org/2000/svg">
<path d="M8 0.625C5.2775 0.625 3.0625 2.9625 3.0625 5.8375C3.0625 8.5875 7.505 14.9475 7.6925 15.215C7.7274 15.264 7.77352 15.304 7.82702 15.3315C7.8805 15.3591 7.93983 15.3735 8 15.3735C8.06017 15.3735 8.1195 15.3591 8.17297 15.3315C8.22647 15.304 8.2726 15.264 8.3075 15.215C8.5 14.9475 12.9375 8.5975 12.9375 5.8375C12.9375 2.9625 10.7225 0.625 8 0.625ZM5.6925 5.8375C5.8175 2.78 10.1925 2.78 10.3075 5.8375C10.1825 8.8975 5.8175 8.895 5.6925 5.8375Z" fill="white" fill-opacity="0.8"/>
</svg>
