<svg width="102" height="93" viewBox="0 0 102 93" fill="none" xmlns="http://www.w3.org/2000/svg">
<path d="M40.5178 32.3955C43.5171 32.1538 46.5302 32.1538 49.5295 32.3955C51.1628 32.4908 52.7883 32.6951 54.3959 33.0072C57.8744 33.7115 60.1453 34.8607 61.1186 36.7142C61.8496 38.1608 61.8496 39.8828 61.1186 41.3294C60.1453 43.1829 57.9645 44.4062 54.3598 45.0364C52.7536 45.3603 51.1277 45.5709 49.4935 45.6666C47.9795 45.8334 46.4655 45.8334 44.9335 45.8334H42.176C41.5992 45.7593 41.0405 45.7222 40.4998 45.7222C38.8655 45.6381 37.2393 45.4337 35.6334 45.1106C32.1549 44.4433 29.884 43.2571 28.9107 41.4036C28.535 40.6856 28.3369 39.8835 28.3337 39.0681C28.3261 38.2478 28.5182 37.4386 28.8927 36.7142C29.8479 34.8607 32.1189 33.6559 35.6334 33.0072C37.2463 32.6906 38.8782 32.4863 40.5178 32.3955ZM45.0056 4.16675C51.0478 4.16675 55.9459 9.20388 55.9459 15.4175C55.9459 21.6311 51.0478 26.6682 45.0056 26.6682C38.9635 26.6682 34.0654 21.6311 34.0654 15.4175C34.0654 9.20388 38.9635 4.16675 45.0056 4.16675Z" fill="white"/>
<g filter="url(#filter0_d_206_8)">
<path d="M10.56 72V58.22H15.64C16.6933 58.22 17.56 58.3867 18.24 58.72C18.92 59.04 19.4267 59.5333 19.76 60.2C20.0933 60.8667 20.26 61.7267 20.26 62.78C20.26 63.82 20.0933 64.6933 19.76 65.4C19.4267 66.1067 18.92 66.64 18.24 67C17.56 67.36 16.6933 67.54 15.64 67.54H12.48V72H10.56ZM12.48 65.92H15.62C16.5667 65.92 17.2467 65.6533 17.66 65.12C18.0867 64.5733 18.3 63.7933 18.3 62.78C18.3 61.7667 18.0867 61.0267 17.66 60.56C17.2467 60.0933 16.5667 59.86 15.62 59.86H12.48V65.92ZM22.435 72V58.22H27.635C28.6483 58.22 29.495 58.3667 30.175 58.66C30.855 58.9533 31.3617 59.4133 31.695 60.04C32.0417 60.6667 32.215 61.4867 32.215 62.5C32.215 63.5 32.015 64.3467 31.615 65.04C31.2283 65.7333 30.6217 66.22 29.795 66.5L32.315 72H30.215L27.955 66.92H24.355V72H22.435ZM24.355 65.3H27.655C28.295 65.3 28.8017 65.18 29.175 64.94C29.5617 64.7 29.835 64.3733 29.995 63.96C30.155 63.5333 30.235 63.0533 30.235 62.52C30.235 61.6267 30.0217 60.96 29.595 60.52C29.1817 60.08 28.5283 59.86 27.635 59.86H24.355V65.3ZM39.8192 72.2C38.3659 72.2 37.2326 71.94 36.4192 71.42C35.6192 70.8867 35.0526 70.1 34.7192 69.06C34.3992 68.0067 34.2392 66.7133 34.2392 65.18C34.2392 63.6333 34.4059 62.3333 34.7392 61.28C35.0726 60.2133 35.6392 59.4 36.4392 58.84C37.2526 58.28 38.3792 58 39.8192 58C41.2459 58 42.3592 58.28 43.1592 58.84C43.9726 59.3867 44.5459 60.1933 44.8792 61.26C45.2126 62.3267 45.3792 63.6333 45.3792 65.18C45.3792 66.7533 45.2126 68.0667 44.8792 69.12C44.5592 70.16 43.9926 70.9333 43.1792 71.44C42.3792 71.9467 41.2592 72.2 39.8192 72.2ZM39.8192 70.54C40.8059 70.54 41.5526 70.3467 42.0592 69.96C42.5792 69.5733 42.9326 68.9867 43.1192 68.2C43.3059 67.4 43.3992 66.3933 43.3992 65.18C43.3992 63.9933 43.3059 62.9933 43.1192 62.18C42.9326 61.3533 42.5792 60.7267 42.0592 60.3C41.5392 59.8733 40.7926 59.66 39.8192 59.66C38.8326 59.66 38.0792 59.8733 37.5592 60.3C37.0526 60.7267 36.6992 61.3467 36.4992 62.16C36.3126 62.9733 36.2192 63.98 36.2192 65.18C36.2192 66.3533 36.3126 67.34 36.4992 68.14C36.6859 68.94 37.0326 69.54 37.5392 69.94C38.0592 70.34 38.8192 70.54 39.8192 70.54ZM47.9819 72V58.22H56.4219V59.9H49.9019V64.88H55.3819V66.54H49.9019V72H47.9819ZM58.4897 72V58.22H60.4097V72H58.4897ZM63.5483 72V58.22H65.4683V70.32H71.3283V72H63.5483ZM73.1186 72V58.22H81.7586V59.88H75.0386V64.2H80.5586V65.82H75.0386V70.34H81.7586V72H73.1186Z" fill="white"/>
</g>
<defs>
<filter id="filter0_d_206_8" x="0.560059" y="48" width="101.199" height="44.2" filterUnits="userSpaceOnUse" color-interpolation-filters="sRGB">
<feFlood flood-opacity="0" result="BackgroundImageFix"/>
<feColorMatrix in="SourceAlpha" type="matrix" values="0 0 0 0 0 0 0 0 0 0 0 0 0 0 0 0 0 0 127 0" result="hardAlpha"/>
<feOffset dx="5" dy="5"/>
<feGaussianBlur stdDeviation="7.5"/>
<feComposite in2="hardAlpha" operator="out"/>
<feColorMatrix type="matrix" values="0 0 0 0 0 0 0 0 0 0 0 0 0 0 0 0 0 0 0.25 0"/>
<feBlend mode="normal" in2="BackgroundImageFix" result="effect1_dropShadow_206_8"/>
<feBlend mode="normal" in="SourceGraphic" in2="effect1_dropShadow_206_8" result="shape"/>
</filter>
</defs>
</svg>
