<svg width="40" height="40" viewBox="0 0 40 40" fill="none" xmlns="http://www.w3.org/2000/svg">
<path d="M36.625 3.24997C36.25 2.99997 35.75 2.87497 35.375 2.99997L3.75 14.625C3.25 14.75 2.875 15.25 2.875 15.75C2.875 16.25 3.25 16.75 3.75 16.875L16.5 21.625L29 9.12497C29.5 8.62497 30.25 8.62497 30.75 9.12497C31.25 9.62497 31.25 10.375 30.75 10.875L18.5 23.125L26.75 36.375C27 36.75 27.375 37 27.75 37C27.875 37 27.875 37 28 37C28.5 36.875 28.875 36.5 29 36.125L36.75 4.62497C37.125 4.12497 37 3.62497 36.625 3.24997Z" fill="black" fill-opacity="0.5"/>
</svg>
